<?xml version="1.0" encoding="UTF-8"?>
<svg id="Layer_1" data-name="Layer 1" xmlns="http://www.w3.org/2000/svg" viewBox="0 0 477.16 275.98">
  <defs>
    <style>
      .cls-1 {
        fill: #368998;
      }
      .cls-2 {
        fill: #1e8ea2;
      }

      .cls-3 {
        fill: #1793ae;
      }

      .cls-4 {
        fill: #316681;
      }
    </style>
  </defs>
  <path class="cls-2" d="m319.98,211.17c.12-.01.23-.02.35-.04,2.8.82,5.73.63,8.36-.12,8.26-2.36,16.91-1.69,25.24-3.72,5.28-1.29,10.89-1.21,16.32-1.95,5.07-.69,9.83-2.65,14.7-4,6.57-1.82,12.36-6.35,19.71-5.74,2.37.19,4.09-2.12,6.04-3.53,2.79-2.02,5.31-4.49,7.91-6.62,1.57-1.29,4.64-2.36,5.15-5.83.32-2.14,1.83-4.43,1.65-6.88-.18-2.49.97-5.53-2.33-7.03-.36-.53-.73-1.05-1.09-1.58,1.68-1.29,3.35-2.57,5.03-3.86.05.04.08.09.08.15.12.06.24.13.36.19,1.87,1.16,3.74,2.32,5.61,3.47,2.58.73,1.22,4.28,4.47,5.36,3.11,1.04,3.7,5.32,4.07,8.8.41,3.88-.94,7.2-2.93,10.37-.32.33-.63.66-.95.99-.05.05-.09.1-.14.15-1.74,1.53-3.49,3.06-5.23,4.59-2.14-.68-2.99.81-3.83,2.3-2.23,1.24-4.45,2.47-6.68,3.71-1.23-.84-2.33-.26-3.54.19-4.64,1.72-9.37,3.19-13.93,5.09-1.85.77-4.93-.54-5.41,2.84-13.11,3.94-26.51,6.55-40.04,8.49-.34-.24-.75-.76-1.02-.69-3.3.83-6.58,1.74-9.86,2.62-.12.02-.24.03-.36.05-1.61-1.67-7.64-.84-8.89,1.23-8.9.91-17.78,1.99-26.69,2.7-15.29,1.21-30.57,2.43-45.94,2.44-13.79,0-27.59.7-41.38.46-16.01-.29-32.05-.75-47.99-2.09-17.07-1.44-34.23-2.41-51.1-5.72-12.85-2.52-25.86-4.02-38.52-7.69-7.93-2.3-16.01-4.12-23.75-7.07-.15-1.09-1.13-1.42-1.74-2.08-1.46-1.6-5.77,1.8-5.14-3,1.6.23,3.2.64,4.8.64,1.57,0,3.63.94,4.45-1.39.45-1.26.41-2.55-1.01-3.29-3.86-1.99-7.93-3.59-11.44-6.24-1.24-.93-3.2-1.22-3.96-2.38-1.19-1.82-1.78-4.08-2.35-6.23-.3-1.13-.3-2.23-1.7-2.49-1.3-.24-1.13-1.23-1.09-2.12.05-.87.62-1.17,1.43-1.14.89,2.55,1.25,5.5,3.71,7.08,2.59,1.66,3.03,5.3,6.31,6.29,2.01.61,4.01,1.45,5.78,2.56,10.04,6.28,20.56,11.41,32.29,13.67,6.51,1.26,13.03,2.49,19.58,3.49,4.87.74,9.83.85,14.68,1.66,7.73,1.28,15.43,2.81,23.1,4.44,2.76.59,5.63-.47,8.07.23,4.25,1.21,8.5,1.59,12.74,1.28,5.19-.38,10.13.09,15.19,1.28,3.73.87,7.65-.02,11.39-1.08,1.02.07,2.04.13,3.06.2,1.27.49,2.52,1.32,3.82,1.4,5.91.36,11.83-.57,17.76.32,1.9.29,3.98-.61,5.98-.96.42,0,.84,0,1.26,0,3.17,1.91,6.78,1.34,10.06,1.11,10.11-.71,20.21-.31,30.31-.54,11.35-.25,22.68-1.43,34.01-2.26,2.62-.19,5.28-.34,7.57-1.91.48,0,.95-.02,1.43-.03,2.14.74,4.23.89,6.18-.54Zm34.46,2.4c-.07-.68.06-1.42-.76-1.31-1.21.15-1.93.91-1.97,2.16-.03.8.39,1.65,1.16,1.52,1.28-.21,1.31-1.51,1.58-2.37Z"/>
  <path class="cls-4" d="m17.52,176.92c.03.07.05.14.08.21.04.05.09.1.13.15-.19,1.03-.39,2.05-.58,3.08-2.5.57-.39,1.94-.4,2.86-.04,3.38,6.88,12.39,9.88,13.88,3.68,1.83,7.06,4.23,10.65,6.24,3.51,1.97,6.98,4.16,10.72,5.55,6.93,2.57,14.04,4.67,21.11,6.83,1.1.33,2.28,1.61,3.59.33.79.19,1.57.38,2.36.57,1.87,1.23,3.81,2.21,6.16,1.6.25.02.49.03.74.05.3.16.6.31.9.47.55.07,1.09.15,1.64.22.31.3.56.72.93.88,3.99,1.68,8.55,1.07,12.49,3.1.81.42,2.14.66,3.07-.3,4.77.75,9.53,1.5,14.3,2.25,1.24,1.98,3.44.78,5.11,1.49.98.41,2.34.93,3.41-.17.48.04.97.08,1.45.12.34.66.74,1.15,1.5.46,10.71,1.19,21.41,2.39,32.12,3.54,1.53.16,3.09.05,4.64.06,1.82,2.24,4.49.5,6.62,1.37.1.04.41-.44.63-.68,9.19.55,18.38,1.11,27.57,1.66.46,1.23,8.12,1.54,9.41.38,6.48.17,12.95.43,19.43.48,11.94.08,23.88.03,35.82,0,2.13,0,4.27-.11,6.4-.16,1.83.95,3.65,1.18,5.43-.14,11.94-.62,23.89-1.16,35.83-1.88,6.92-.42,13.82-1.13,20.72-1.71,2.08.72,4.09.69,5.98-.59,2.11-.25,4.22-.51,6.33-.76,1.09.38,2.16.68,2.93-.57.85-.04,1.69-.09,2.54-.13,1.9.95,3.66.81,5.24-.69.31,0,.61,0,.92,0,.57.81,9.42-.34,10.13-1.32.42-.1.84-.2,1.26-.3.26.1.54.33.77.29,5.51-.84,11.04-1.6,16.51-2.64,1.33-.25,3.11,0,3.94-1.66,1.68-.32,3.36-.64,5.04-.95.13-.03.27-.06.4-.1.12-.01.25-.03.37-.04.36.09.75.31,1.07.23,3.57-.83,7.17-1.59,10.68-2.62,2.18-.64,4.82-.23,6.36-2.5.05-.04.1-.05.16-.03.07-.03.13-.06.2-.08,1.13-.28,2.27-.56,3.4-.85.49.04,1.05.26,1.48.11,9.68-3.59,19.43-6.88,28.14-12.82,5.89-4.02,11.43-8.02,13.71-15.01.52-1.6,1.98-3.84-.29-5.55-.04-.67-.09-1.34-.13-2.01.82-.3,1.63-.61,2.45-.91,3.73,5.64,1.93,15.5-3.6,19.54-2.81,2.05-4.35,5.32-6.97,7.37-1.32,1.03-3.68.97-5.13,2.41-1.45.31-2.98.42-4.31.99-.8.35-2.23.3-2.25,1.78-4.8,1.81-9.55,3.77-14.42,5.38-5.28,1.75-10.7,3.03-15.99,4.75-9.62,3.13-19.59,4.59-29.47,6.52-19.18,3.74-38.63,5.1-58.01,7.19-22,2.37-44.04,2.79-66.1,3.23-11.67.23-23.36.34-35.03,0-14.85-.43-29.7-1.1-44.51-2.18-15-1.1-29.98-2.58-44.91-4.36-10.69-1.27-21.33-3.09-31.92-5.07-8.66-1.62-17.3-3.5-25.78-5.87-11.29-3.15-22.58-6.38-33.23-11.46-8.88-4.24-17.48-8.87-23.17-17.25-3.26-4.8-3.63-9.98-.46-15.12.6.3,1.2.6,1.79.9Z"/>
  <path class="cls-2" d="m371.68,160.88c.06,0,.1.02.12.08.13.07.27.13.4.2,8.52,3.83,12.06,10.61,8.42,17.13-2.15,3.85-6.48,5.61-10.02,8.07-1.1-.53-3.79.27-2.94-1.83,1.29-3.19-.23-6-.39-8.91-.19-3.41-1.78-4.79-2.95-4.37-6.7-6.28-15.05-9.18-23.57-12-5.9-1.95-11.84-3.71-17.88-5.06-5.41-1.21-10.92-2-16.42-2.77-10.8-1.51-21.62-2.91-32.44-4.26-2.72-.34-5.49-.31-8.24-.45-.15-1.05-2.61-1.51-.86-3.03,2.03-1.75,4.1-3.17,7.13-2.5,2.71.6,5.55.54,8.29,1.01,6.2,1.06,12.37-.54,18.64.18,8.85,1.02,17.29,3.87,26.14,5.02,5.43.71,11.07,1.69,16.55,2.93,8.23,1.86,15.71,5.49,23.65,7.91,2.19.67,4.25,1.76,6.37,2.66Z"/>
  <path class="cls-2" d="m100.62,185.97c-.66-.31-1.32-.62-1.98-.93.47-.74.95-1.49,1.42-2.23-1.82-.2-3.63-.41-5.45-.61-1.91-1.4-4.12-2.49-5.05-4.89-.66-3.23-1.33-6.46-.89-9.79,1.06-2.75,2.94-4.72,5.59-5.98.35-.08.75-.09,1.04-.26,10.7-6.63,22.88-9.42,34.77-12.54,11.39-2.98,23.19-4.53,34.86-6.3,5.41-.82,11.09-.43,16.42-1.18,7.04-.99,13.92-.86,20.89-.57,1.76.07,1.68,1.79,1.97,2.91.26.97-.16,2.06-1.16,2.7-.18,0-.36,0-.54,0-.06,0-.12,0-.18,0-10.44.97-20.89,1.78-31.3,2.98-7.28.84-14.54,2.03-21.74,3.44-6.13,1.2-12.21,2.75-18.22,4.49-8.76,2.53-17.58,5.02-24.81,11.04-2.01.08-3.11,1.27-3.68,3.06-.06.19.27.49.42.74-.05.13-.1.26-.16.4-.03.05-.04.11-.03.16-.02.23-.04.47-.06.7-3.67,1.29-1.67,4.3-1.75,6.49-.07,2.07,2.41,4.24-.38,6.18Z"/>
  <path class="cls-2" d="m219.2,56.69c-2.29-10.29-4.62-20.56-6.82-30.87-.25-1.16.2-2.48.33-3.72.05-.1.1-.21.14-.31,0,0,.01-.03.01-.03.11-.25.21-.5.32-.74.06-.12.12-.24.17-.37.2-.16.42-.31.61-.48,4.85-4.41,10.25-6.93,17.09-5.9,3.98.6,6.45,3.27,9.34,5.48,0,0,0,0,0,0,.35,1.33.7,2.65,1.05,3.98.01.13.02.26.03.39.05.23.1.46.15.7,0,1.09,0,2.18,0,3.27-.04.06-.08.12-.12.18-.61,6.81-1.32,13.62-1.79,20.44-.75,10.76-1.36,21.52-2.02,32.28-.08,1.32-.14,2.63-.21,3.95-1.14,1.44-3.32,2.6-1.23,4.88.14.15,0,.8-.2.98-1.93,1.67-.78,2.32.89,2.83-.18,11.71-.36,23.41-.54,35.12-.6,3.33-1.18,6.65-1.8,9.97-.14.74.54,2.15-.76,2.05-1.21-.1-.82-1.51-.81-2.42.01-1.62-.13-3.16-1.64-4.17-.97-7.78-1.94-15.57-2.91-23.35,1.21-1.4.6-3.04.08-4.31-1.09-2.66.14-5.87-2.08-8.19-.04-.42-.08-.84-.13-1.26,1.08-.46.44-1.39.61-2.1.78-3.24-2.44-6.01-1.04-9.3.3-.11.87-.25.86-.31-.08-.47-.26-.92-.41-1.38l-.64.97c-1.63-1.86.07-4.03-.83-6.34-1.91-4.94-2.17-10.49-3.64-15.64-.59-2.08,0-4.64-2.03-6.27Zm21.19-24.1c0-10.75-2.66-15.31-8.85-16.6-6.86-1.43-14.41,1.5-16.79,6.7-1.79,3.91.34,7.72.9,11.48.67,4.45,2.67,8.68,3.63,13.11.73,3.36.1,6.96,1.41,10.27,1.53,3.87,3.03,7.67,2.76,12.03-.21,3.35.92,6.13,5.16,5.96.37-.01.91.17,1.06.44.14.24-.01.81-.23,1.09-.89,1.16.47,9.08,1.75,9.83.16.09.42.11.59.05,3.02-.99,2.74-4.38,4.43-6.41.87-1.04.03-3.73-.4-5.59-.96-4.18.93-8.1.84-12.24-.14-5.77.42-11.59,1.15-17.33.61-4.77,1.89-9.46,2.59-12.81Z"/>
  <path class="cls-2" d="m202.51,110.29c-6.26-10.17-15.61-16.41-26.18-21.46-4.7-2.25-9.24-5.54-10.2-11.44-.23-1.43.52-2.87,1.77-3.85.06-.05.11-.1.17-.15.08-.07.16-.13.24-.2.39-.03.8,0,1.16-.11,8.07-2.5,15.78-.99,22.98,2.76,4.55,2.37,7.5,6.82,10.93,10.54,6.36,6.88,9,15.73,11.71,24.4.87,2.79-.4,6.35.74,8.93.82,1.85-1.72,4.76,1.75,5.61.27.07.45.87.51,1.36.13,1,.48,1.81,1.43,2.27,0,.36,0,.72,0,1.07-.02.02-.06.04-.05.06.01.05.04.09.06.13,0,4.46,0,8.92,0,13.38-1.65.73-1.11,2.23-1.29,3.51-.07.53-.49,1.02-.75,1.52-.28-.35-.61-.68-.84-1.06-.61-1.01-1.19-2.05-1.77-3.07-.07-.42-.14-.83-.21-1.25.84-3.01-.68-5.76-1.04-8.63-.25-2.02-.17-4.49-2.56-5.68-.49-1.51-.98-3.02-1.47-4.53.12-.18.35-.37.33-.54-.3-3.98-2.24-7.33-4.52-10.39-.74-1-.5-3.31-2.77-2.97,0,0,.02,0,.02,0-.05-.07-.1-.15-.15-.22Zm-24.85-37.57c-1.92-.32-3.56.6-5.31.94-4.96.96-6.06,3.5-3.14,7.34,2.55,3.35,5.5,6.29,9.44,7.82,5.76,2.23,11.44,4.62,15.5,9.42,2.82,3.34,6.48,4.37,9.03,1.41,2.37-2.76,3.22-8.14-.26-10.43-5.23-3.44-7.19-9.67-13.17-12.63-4.06-2.01-8-2.88-12.1-3.87Z"/>
  <path class="cls-2" d="m284.44,92.87c-4.69,2.22-8.9,5.13-12.48,8.89-1.6,1.68-3.05,3.51-4.56,5.28-3.41.23-8.03,7.93-6.52,10.87-1.52,4.13-3.15,8.23-4.54,12.4-1.23,3.67-2.19,7.42-3.28,11.13-.02.02-.06.04-.06.06.01.05.04.09.06.14,0,.18,0,.35-.01.53-.48.88-.92,1.8-1.46,2.64-.32.49-.8.88-1.21,1.31-.24-.32-.6-.6-.7-.96-.76-2.72-.58-5.47-.24-8.22-.63-3.54,1.48-7.38-1.2-10.7,0-.12,0-.25,0-.37.04-.79.08-1.59.11-2.38.32-1.73.64-3.47.96-5.2,2.13-1.78,1.5-4.53,2.18-6.79.3-.98,2.16-2.27.29-3.55.14-.54.29-1.07.43-1.61,1.37-1.13,2.69-2.35,4.14-3.36,1.67-1.17,2.22-2.54,1.47-4.48-.57-1.48-.14-2.93.78-4.08,4.74-5.92,10.34-10.94,16-16,5-4.46,10.36-5.99,16.49-5.46,3.23.28,7.46-1.11,9.24,3.42.98,2.49-1.03,4.48-1.22,6.78-1.15,1.15-2.3,2.29-3.46,3.44-.39-.1-.88-.39-1.14-.26-2.76,1.5-5.47,3.07-8.21,4.62-.82.46-2.03.55-1.88,1.94Zm4.29-18.9c-5.01.12-8.73.76-11.61,3.74-1.77,1.83-3.28,3.98-5.24,5.56-4.38,3.51-8.7,7.09-11.56,11.99-2.25,3.86-.49,7.46,2.3,9.88,2.14,1.85,4.81-1.2,6.01-2.3,3.34-3.08,5.16-7.28,10.06-9.38,5.53-2.37,11.45-4.46,16.14-8.73,2.1-1.91,4.19-3.44,3.73-6.61-.3-2.12-1.55-3.35-3.66-3.58-2.41-.27-4.83-.44-6.18-.56Z"/>
  <path class="cls-1" d="m198.53,214.37c-3.74,1.06-7.66,1.95-11.39,1.08-5.06-1.19-10-1.66-15.19-1.28-4.23.31-8.49-.07-12.74-1.28-2.44-.69-5.31.36-8.07-.23-7.67-1.64-15.36-3.16-23.1-4.44-4.85-.8-9.82-.92-14.68-1.66-6.55-1-13.07-2.23-19.58-3.49-11.73-2.26-22.25-7.39-32.29-13.67-1.77-1.11-3.78-1.96-5.78-2.56-3.28-.99-3.72-4.63-6.31-6.29-2.45-1.58-2.81-4.53-3.71-7.08,1.86-2.95-1.27-6.34.86-9.34.48-.68,2.11-2.35-.14-2.7-3.82-.6-12.94,7.11-13.64,10.92-.84,4.57-1.18,9.02,1.35,13.22l-.04.04c-4.12-3.62-4.9-12.38-1.61-16.75,5.23-6.96,12.68-10.71,20.32-14.22,3.4-1.56,6.69-3.37,10.13-4.85,1.3-.56,2.86-.5,4.3-.72.07-.01.14.05.22.08-.59.36-1.17.75-1.78,1.07-6.44,3.48-13.27,6.5-16.67,13.66-4,8.42.8,15.37,7.47,20.16,3.13,2.24,6.36,4.47,9.83,6.08,12.27,5.68,25.2,9.27,38.39,12.25,12.4,2.8,24.88,4.75,37.45,6.56,14.83,2.14,29.73,3.17,44.61,4.67,3.91.4,7.85.52,11.77.77Z"/>
  <path class="cls-1" d="m423.09,165.7c3.3,1.5,2.14,4.54,2.33,7.03.18,2.45-1.33,4.74-1.65,6.88-.52,3.48-3.58,4.55-5.15,5.83-2.6,2.13-5.12,4.6-7.91,6.62-1.95,1.41-3.67,3.72-6.04,3.53-7.35-.6-13.14,3.92-19.71,5.74-4.87,1.35-9.63,3.31-14.7,4-5.43.74-11.04.66-16.32,1.95-8.32,2.03-16.98,1.36-25.24,3.72-2.63.75-5.56.95-8.36.12,6.94-1.04,13.88-2.09,20.82-3.1,4.26-.62,8.63-.81,12.78-1.87,3.44-.89,7-.86,10.43-2.12,3.51-1.29,7.42-1.46,11.09-2.37,3.95-.98,7.81-2.53,11.69-3.43,5.92-1.37,11.39-3.71,16.86-6.04,6.38-2.73,12.7-5.76,17.22-11.46,3.72-4.69,3.97-9.68,1.88-15.03Z"/>
  <path class="cls-1" d="m371.68,160.88c-2.12-.9-4.18-1.99-6.37-2.66-7.95-2.41-15.42-6.05-23.65-7.91-5.48-1.24-11.12-2.22-16.55-2.93-8.85-1.15-17.28-4-26.14-5.02-6.27-.72-12.44.87-18.64-.18-2.74-.47-5.59-.41-8.29-1.01-3.03-.67-5.11.75-7.13,2.5-1.76,1.52.71,1.98.86,3.03-1.77-.33-4.77.87-4.57-2.23.17-2.58.1-6.04,4.91-5.51,8.14.9,16.36,1.06,24.53,1.77,6.42.56,12.83,1.38,19.21,2.28,10.78,1.52,21.47,3.51,32.02,6.32,10.38,2.77,20.71,5.53,29.81,11.54Z"/>
  <path class="cls-4" d="m269.02,175.59c-2.89,2.27-6.46,2.86-9.84,3.79-8.36,2.31-16.97,3.02-25.59,2.88-6.95-.11-13.96-.45-20.81-1.56-6.17-.99-12.16-3.13-17.28-7-.69-.52-1.03-1.5-1.54-2.26.65.37,1.28.76,1.94,1.1,6.16,3.07,12.52,4.93,19.51,5.74,6.54.76,13.05,1.37,19.58,1.38,4.81,0,19.93-1.37,22.64-2.07,3.57-.92,7.13-1.91,10.69-2.88.23.29.47.58.7.87Z"/>
  <path class="cls-1" d="m203.05,146.28c.99-.64,1.41-1.73,1.16-2.7-.29-1.11-.21-2.84-1.97-2.91-6.97-.28-13.85-.42-20.89.57-5.33.75-11.01.36-16.42,1.18-11.68,1.77-23.47,3.31-34.86,6.3-11.89,3.11-24.07,5.91-34.77,12.54-.29.18-.69.18-1.04.26,3.77-3.36,8.36-5.25,12.98-7.01,5.88-2.24,11.77-4.53,17.82-6.24,5.39-1.52,10.96-2.46,16.5-3.33,10.88-1.72,21.76-3.42,32.77-4.32,9.39-.76,18.76-2.27,28.19-1.94,3.5.12,3.19,3.81,3.2,6.42,0,1.82-1.66,1.02-2.67,1.18Z"/>
  <path class="cls-1" d="m299.12,83.12c.2-2.3,2.2-4.29,1.22-6.78-1.78-4.53-6.01-3.14-9.24-3.42-6.14-.53-11.5,1-16.49,5.46-5.66,5.06-11.26,10.08-16,16-.92,1.15-1.35,2.6-.78,4.08.75,1.94.2,3.31-1.47,4.48-1.45,1.02-2.76,2.24-4.14,3.36,1.69-6.68,4.99-12.75,9.25-17.89,4.95-5.97,9.93-12.18,17.76-15.18,6.03-2.3,11.99-2.81,18.05-1.23,5.04,1.31,5.87,7.17,1.84,11.11Z"/>
  <path class="cls-1" d="m219.52,128.95c-.95-.46-1.3-1.27-1.43-2.27-.06-.48-.24-1.29-.51-1.36-3.47-.86-.93-3.76-1.75-5.61-1.14-2.58.13-6.14-.74-8.93-2.7-8.67-5.34-17.52-11.71-24.4-3.43-3.71-6.39-8.17-10.93-10.54-7.2-3.76-14.91-5.27-22.98-2.76-.36.11-.78.08-1.16.11,5.5-3.8,11.45-2.56,17.03-.84,13.91,4.31,21.65,15.22,27.62,27.53,4.42,9.11,5.97,19.01,6.56,29.06Z"/>
  <path class="cls-1" d="m231.36,134.18c1.51,1.01,1.65,2.55,1.64,4.17,0,.91-.4,2.32.81,2.42,1.3.1.62-1.31.76-2.05.63-3.32,1.21-6.65,1.8-9.97-.07,11.86-.14,23.71-.23,35.57,0,.44-.26.87-.4,1.31-.13-.39-.32-.77-.37-1.16-1.35-10.09-2.68-20.19-4.01-30.28Z"/>
  <path class="cls-1" d="m312.37,211.73c-2.29,1.57-4.95,1.72-7.57,1.91-11.33.83-22.66,2.01-34.01,2.26-10.1.23-20.2-.17-30.31.54-3.28.23-6.89.8-10.06-1.11,3.25-.06,6.5-.2,9.75-.17,15.94.14,31.87-.29,47.77-1.34,8.16-.54,16.29-1.38,24.44-2.09Z"/>
  <path class="cls-1" d="m427.03,160.27c-1.68,1.29-3.35,2.57-5.03,3.86-7.25-8.21-16.48-13.24-26.77-16.56h-.01c9.76,2.35,19.1,5.85,28.03,10.42,1.31.67,2.52,1.51,3.78,2.28Z"/>
  <path class="cls-1" d="m249.44,136.91c-.34,2.75-.52,5.51.24,8.22.1.36.46.64.7.96.41-.43.89-.82,1.21-1.31.54-.85.98-1.76,1.46-2.64-.85,6.17-1.69,12.34-2.55,18.51-.14,1.01-.35,2.02-.54,3.03-.02.1-.09.19-.13.28-.06-.12-.14-.23-.16-.36-1.41-8.12-1.94-16.3-1.63-24.54.47-.72.94-1.44,1.41-2.15Z"/>
  <path class="cls-1" d="m364.32,171.24c1.17-.42,2.76.96,2.95,4.37.16,2.91,1.68,5.71.39,8.91-.85,2.1,1.85,1.31,2.94,1.83-1.81,1.68-4.18,2.12-6.4,2.88.1-.58.28-1.17.28-1.75,0-.55-.17-1.09-.27-1.64-2.12,1.21-4.32,2.36-4.54,5.22-4.18,1.84-8.49,3.33-12.98,4.21-.24.05-.49.01-.74.02.2-.12.38-.31.6-.36,6.66-1.62,11.9-5.76,17.27-9.68,3.55-2.59,3.8-8.78.51-14Z"/>
  <path class="cls-1" d="m72.7,216.04c-1.31,1.27-2.5,0-3.59-.33-7.07-2.16-14.18-4.26-21.11-6.83-3.75-1.39-7.21-3.58-10.72-5.55-3.59-2.01-6.98-4.42-10.65-6.24-3-1.49-9.91-10.5-9.88-13.88.01-.92-2.1-2.28.4-2.86-.19,9.14,11.19,17.35,16.96,20.36,5.32,2.78,10.45,5.9,16.15,7.85,7.46,2.55,14.95,4.99,22.43,7.48Z"/>
  <path class="cls-1" d="m100.62,185.97c2.79-1.94.31-4.12.38-6.18.08-2.2-1.92-5.2,1.75-6.49-2.91,6.43,2.21,11.86,8.55,15.62,3.02,1.79,5.82,4.06,9.55,4.28.13,0,.24.38.35.58-.16.02-.33.1-.47.05-5.78-1.96-11.57-3.89-17.31-5.94-1.03-.37-1.87-1.26-2.8-1.91Z"/>
  <path class="cls-1" d="m458.67,181.1c2.27,1.71.81,3.95.29,5.55-2.28,6.99-7.82,10.99-13.71,15.01-8.71,5.94-18.46,9.23-28.14,12.82-.42.16-.98-.06-1.48-.11,9.13-3.09,18.23-6.46,26.43-11.45,8.17-4.98,16.7-10.29,16.6-21.81Z"/>
  <path class="cls-1" d="m214.87,144.5c.59,1.03,1.16,2.06,1.77,3.07.23.38.56.71.84,1.06.26-.51.68-.99.75-1.52.18-1.28-.36-2.78,1.29-3.51-.45,6.14-.88,12.27-1.36,18.41-.03.34-.4.65-.61.98-.2-.26-.54-.5-.57-.78-.72-5.9-1.41-11.8-2.11-17.7Z"/>
  <path class="cls-1" d="m219.2,56.69c2.02,1.63,1.43,4.2,2.03,6.27,1.48,5.15,1.73,10.7,3.64,15.64.89,2.3-.8,4.48.83,6.34.06.24.12.48.19.72-1.4,3.29,1.82,6.06,1.04,9.3-.17.71.48,1.65-.61,2.1-2.17-12.56-4.33-25.12-6.51-37.67-.16-.91-.4-1.81-.61-2.71Z"/>
  <path class="cls-1" d="m438.7,188.61c1.99-3.17,3.35-6.49,2.93-10.37-.37-3.48-.96-7.76-4.07-8.8-3.26-1.09-1.9-4.63-4.47-5.36,9.17,5.6,12.84,13.71,7,23.16-.33.54-.92.92-1.39,1.37Z"/>
  <path class="cls-1" d="m398.99,208.47c.48-3.38,3.56-2.08,5.41-2.84,4.56-1.9,9.3-3.36,13.93-5.09,1.2-.45,2.31-1.03,3.54-.19-7.4,3.35-15.07,5.94-22.88,8.12Z"/>
  <path class="cls-2" d="m47.68,196.51c-1.08-.62-2.17-1.24-3.25-1.86-.04-1.06-.78-1.46-1.58-2.02-1.67-1.18-3.63-2.16-4.4-4.3.41.04,1.05-.08,1.21.15,3.91,5.48,11.72,4.54,15.83,9.64-.84.65-1.55.09-2.31-.21-1.77-.71-2.95-3.76-5.5-1.39Z"/>
  <path class="cls-1" d="m229.16,215.33c-2,.35-4.08,1.25-5.98.96-5.94-.9-11.86.03-17.76-.32-1.3-.08-2.55-.91-3.82-1.4,9.19.25,18.38.51,27.56.76Z"/>
  <path class="cls-1" d="m240.39,19.75c-2.88-2.21-5.36-4.88-9.34-5.48-6.84-1.03-12.24,1.49-17.09,5.9-.19.17-.4.32-.61.48,1.95-5.2,10.71-8.5,18.29-6.94,3.8.78,7.21,2.03,8.74,6.04Z"/>
  <path class="cls-1" d="m47.68,196.51c2.55-2.37,3.73.68,5.5,1.39.76.31,1.47.86,2.31.21.36,0,.72,0,1.08,0-.63,4.8,3.68,1.4,5.14,3,.61.67,1.59.99,1.74,2.08-5.54-1.55-10.62-4.2-15.77-6.69Z"/>
  <path class="cls-4" d="m249.44,136.91c-.47.72-.94,1.44-1.41,2.15-1.24-4.3-.5-8.58.21-12.85,2.68,3.31.57,7.16,1.2,10.7Z"/>
  <path class="cls-1" d="m260.88,117.9c-1.51-2.93,3.11-10.63,6.52-10.87-2.17,3.62-4.35,7.24-6.52,10.87Z"/>
  <path class="cls-1" d="m387.94,221.31c-.83,1.67-2.61,1.41-3.94,1.66-5.47,1.04-11,1.8-16.51,2.64-.24.04-.52-.19-.77-.29,7.08-1.34,14.15-2.67,21.22-4.01Z"/>
  <path class="cls-1" d="m211.07,128.93c2.39,1.19,2.3,3.66,2.56,5.68.36,2.87,1.88,5.62,1.04,8.63-1.2-4.77-2.4-9.54-3.6-14.31Z"/>
  <path class="cls-1" d="m38.45,188.33c.77,2.14,2.72,3.12,4.4,4.3.81.57,1.54.96,1.58,2.02-4.16-2.2-7.61-5.2-10.34-9.03,0,0,.04-.04.04-.04,1.8.35,3.21,1.31,4.32,2.75Z"/>
  <path class="cls-1" d="m202.64,110.5c2.27-.34,2.02,1.97,2.77,2.97,2.27,3.06,4.21,6.42,4.52,10.39.01.17-.22.36-.33.54-1.8-4.89-3.88-9.64-6.95-13.9Z"/>
  <path class="cls-1" d="m460.98,178.17c-.82.3-1.63.61-2.45.91-.37-2.76-2.69-4.37-3.9-6.65-.22-.41-.49-.79-.73-1.18.57.3,1.27.47,1.68.91,1.84,1.96,3.6,3.99,5.39,6Z"/>
  <path class="cls-1" d="m101,222.62c-.94.95-2.26.71-3.07.3-3.95-2.03-8.5-1.41-12.49-3.1-.37-.16-.62-.58-.93-.88,5.5,1.23,11,2.45,16.5,3.68Z"/>
  <path class="cls-1" d="m411.87,215.32c-1.54,2.27-4.19,1.87-6.36,2.5-3.52,1.03-7.11,1.79-10.68,2.62-.32.07-.71-.15-1.07-.23,6.04-1.63,12.08-3.26,18.11-4.89Z"/>
  <path class="cls-4" d="m359.67,191.07c.22-2.87,2.42-4.01,4.54-5.22.1.55.28,1.1.27,1.64,0,.58-.18,1.17-.28,1.75-1.51.61-3.02,1.22-4.53,1.83Z"/>
  <path class="cls-1" d="m284.44,92.87c-.14-1.39,1.06-1.48,1.88-1.94,2.73-1.55,5.45-3.12,8.21-4.62.26-.14.75.16,1.14.26-2.88,2.13-5.78,4.21-9.2,5.43-.69.25-1.35.58-2.03.87Z"/>
  <path class="cls-1" d="m236.92,93.63c-1.67-.51-2.81-1.17-.89-2.83.21-.18.34-.83.2-.98-2.09-2.28.1-3.44,1.23-4.88-.18,2.9-.36,5.79-.55,8.69Z"/>
  <path class="cls-1" d="m338.82,220.17c1.25-2.07,7.28-2.9,8.89-1.23-2.94.55-5.82,1.57-8.89,1.23Z"/>
  <path class="cls-1" d="m226.44,98.34c2.23,2.32,1,5.53,2.08,8.19.52,1.27,1.12,2.9-.08,4.31-.67-4.17-1.34-8.33-2-12.5Z"/>
  <path class="cls-1" d="m88.66,167.5c-.44,3.33.23,6.56.89,9.79-2.52-1.53-3.09-7.8-.89-9.79Z"/>
  <path class="cls-1" d="m251.79,107.92c1.88,1.28,0,2.57-.29,3.55-.68,2.26-.05,5.01-2.18,6.79.82-3.45,1.64-6.9,2.47-10.34Z"/>
  <path class="cls-1" d="m207.75,233.1c-1.29,1.16-8.95.85-9.41-.38,3.14.13,6.27.26,9.41.38Z"/>
  <path class="cls-1" d="m348.07,218.9c3.28-.89,6.56-1.8,9.86-2.62.26-.07.68.45,1.02.69-3.63.64-7.25,1.29-10.88,1.93Z"/>
  <path class="cls-1" d="m365.45,225.61c-.71.97-9.56,2.12-10.13,1.32,3.38-.44,6.75-.88,10.13-1.32Z"/>
  <path class="cls-1" d="m123.82,226.18c-1.07,1.11-2.44.58-3.41.17-1.67-.7-3.87.49-5.11-1.49,2.84.44,5.68.88,8.53,1.31Z"/>
  <path class="cls-1" d="m17.52,176.92c-.6-.3-1.2-.6-1.79-.9.52-2,2.33-2.99,3.5-4.47.02-.02.12.03.18.04-.37,1.01-.61,2.1-1.16,3-.46.76-1.02,1.38-.73,2.33Z"/>
  <path class="cls-1" d="m94.61,182.19c1.82.2,3.63.41,5.45.61-.47.74-.95,1.49-1.42,2.23-1.34-.95-2.69-1.9-4.03-2.85Z"/>
  <path class="cls-1" d="m269.02,175.59c-.23-.29-.47-.58-.7-.87,2.21-.8,3.93-2.24,5.41-4.01.07-.09.25-.08.38-.12,0,.11.04.25,0,.34-1.1,2.2-3.14,3.37-5.07,4.66Z"/>
  <path class="cls-1" d="m438.72,210.26c.01-1.48,1.44-1.43,2.25-1.78,1.33-.58,2.86-.69,4.31-.99-1.75,1.95-4.47,1.61-6.55,2.77Z"/>
  <path class="cls-1" d="m170.77,231.05c-.21.24-.53.72-.63.68-2.13-.86-4.79.87-6.62-1.37,2.41.23,4.83.46,7.24.68Z"/>
  <path class="cls-1" d="m354.41,226.93c-1.58,1.5-3.34,1.64-5.24.69,1.75-.23,3.5-.46,5.24-.69Z"/>
  <path class="cls-1" d="m274.83,233.28c-1.78,1.32-3.59,1.09-5.43.14,1.81-.05,3.62-.09,5.43-.14Z"/>
  <path class="cls-1" d="m103,172.03c-.15-.25-.48-.56-.42-.74.56-1.79,1.67-2.98,3.68-3.06-1.09,1.27-2.17,2.53-3.26,3.8Z"/>
  <path class="cls-1" d="m337.36,229.09c-1.88,1.28-3.89,1.31-5.98.59,1.99-.2,3.99-.4,5.98-.59Z"/>
  <path class="cls-1" d="m81.22,218.2c-2.35.61-4.29-.37-6.16-1.6,2.05.53,4.11,1.06,6.16,1.6Z"/>
  <path class="cls-1" d="m319.98,211.17c-1.95,1.43-4.04,1.28-6.18.54,2.06-.18,4.12-.36,6.18-.54Z"/>
  <path class="cls-1" d="m428.55,196.64c.85-1.48,1.69-2.97,3.83-2.3-1.28.77-2.55,1.53-3.83,2.3Z"/>
  <path class="cls-1" d="m241.44,23.73c-.35-1.33-.7-2.65-1.05-3.98.83,1.2,1.29,2.5,1.05,3.98Z"/>
  <path class="cls-1" d="m346.62,227.75c-.77,1.25-1.84.95-2.93.57.98-.19,1.95-.38,2.93-.57Z"/>
  <path class="cls-1" d="m126.77,226.76c-.76.69-1.16.2-1.5-.46.5.15,1,.31,1.5.46Z"/>
  <path class="cls-4" d="m248.36,123.47c-.04.79-.08,1.59-.11,2.38.04-.79.08-1.59.11-2.38Z"/>
  <path class="cls-1" d="m82.86,218.72c-.3-.16-.6-.31-.9-.47.3.16.6.31.9.47Z"/>
  <path class="cls-1" d="m213.19,21.02c-.11.25-.21.5-.32.74.11-.25.21-.5.32-.74Z"/>
  <path class="cls-1" d="m241.61,24.82c-.05-.23-.1-.46-.15-.7.05.23.1.46.15.7Z"/>
  <path class="cls-1" d="m427.48,160.6c-.12-.06-.24-.13-.36-.19.12.06.24.13.36.19Z"/>
  <path class="cls-1" d="m395.24,147.57c-.07-.03-.14-.07-.21-.1,0,.02-.02.05-.02.07.08,0,.15.02.23.03,0,0,.01,0,.01,0Z"/>
  <path class="cls-1" d="m212.86,21.79c-.05.1-.1.21-.14.31.05-.1.1-.21.14-.31Z"/>
  <path class="cls-1" d="m393.38,220.26c-.13.03-.27.06-.4.1.13-.03.27-.06.4-.1Z"/>
  <path class="cls-1" d="m372.21,161.16c-.13-.07-.27-.13-.4-.2.13.07.27.13.4.2Z"/>
  <path class="cls-1" d="m412.23,215.21c-.07.03-.13.06-.2.08.07-.03.13-.06.2-.08Z"/>
  <path class="cls-1" d="m241.48,28.27c.04-.06.08-.12.12-.18-.04.06-.08.12-.12.18Z"/>
  <path class="cls-1" d="m168.07,73.39c-.06.05-.11.1-.17.15.06-.05.11-.1.17-.15Z"/>
  <path class="cls-1" d="m437.61,189.75c.05-.05.09-.1.14-.15-.05.05-.09.1-.14.15Z"/>
  <path class="cls-1" d="m202.51,110.29c.05.07.1.15.15.22-.05-.07-.1-.15-.15-.22Z"/>
  <path class="cls-1" d="m17.73,177.27s-.09-.1-.13-.15c.04.05.09.1.13.15Z"/>
  <path class="cls-1" d="m219.53,130.21s-.05-.09-.06-.13c0-.01.04-.04.05-.06,0,.06,0,.13,0,.19Z"/>
  <path class="cls-1" d="m102.81,172.59c0-.06,0-.11.03-.16,0,.04.02.08.01.12,0,.02-.03.03-.04.04Z"/>
  <path class="cls-1" d="m253.06,141.62s-.05-.09-.06-.14c0-.01.04-.04.06-.06,0,.06,0,.13,0,.19Z"/>
  <path class="cls-1" d="m202.32,146.29c.06,0,.12,0,.18,0-.06,0-.12,0-.18,0Z"/>
  <path class="cls-3" d="m38.45,188.33c-1.11-1.44-2.52-2.4-4.32-2.75-2.53-4.2-2.19-8.65-1.35-13.22.7-3.82,9.82-11.52,13.64-10.92,2.25.35.62,2.03.14,2.7-2.14,3,.99,6.4-.86,9.34-.81-.03-1.39.27-1.43,1.14-.05.89-.21,1.88,1.09,2.12,1.41.26,1.41,1.37,1.7,2.49.57,2.15,1.16,4.41,2.35,6.23.76,1.16,2.72,1.45,3.96,2.38,3.52,2.64,7.58,4.24,11.44,6.24,1.42.74,1.46,2.03,1.01,3.29-.83,2.32-2.88,1.39-4.45,1.39-1.6,0-3.2-.41-4.8-.64-.36,0-.72,0-1.08,0-4.11-5.1-11.92-4.16-15.83-9.64-.16-.22-.8-.1-1.21-.15Z"/>
  <path class="cls-3" d="m354.44,213.57c-.27.86-.3,2.16-1.58,2.37-.76.12-1.18-.72-1.16-1.52.04-1.26.76-2.01,1.97-2.16.82-.1.69.63.76,1.31Z"/>
  <path class="cls-3" d="m240.39,32.59c-.7,3.34-1.98,8.03-2.59,12.81-.73,5.74-1.29,11.56-1.15,17.33.1,4.15-1.8,8.07-.84,12.24.43,1.86,1.27,4.55.4,5.59-1.7,2.03-1.42,5.42-4.43,6.41-.18.06-.44.04-.59-.05-1.28-.75-2.64-8.67-1.75-9.83.21-.28.37-.85.23-1.09-.16-.27-.7-.46-1.06-.44-4.23.17-5.37-2.61-5.16-5.96.28-4.35-1.22-8.16-2.76-12.03-1.31-3.31-.68-6.91-1.41-10.27-.96-4.43-2.96-8.66-3.63-13.11-.57-3.76-2.69-7.58-.9-11.48,2.38-5.2,9.94-8.13,16.79-6.7,6.18,1.29,8.85,5.85,8.85,16.6Z"/>
  <path class="cls-3" d="m225.88,85.67c-.06-.24-.12-.48-.19-.72.21-.32.42-.64.64-.97.15.46.33.91.41,1.38,0,.06-.56.2-.86.31Z"/>
  <path class="cls-3" d="m177.66,72.72c4.1.99,8.04,1.86,12.1,3.87,5.98,2.96,7.94,9.19,13.17,12.63,3.48,2.29,2.63,7.67.26,10.43-2.54,2.96-6.21,1.92-9.03-1.41-4.06-4.81-9.74-7.19-15.5-9.42-3.94-1.53-6.89-4.47-9.44-7.82-2.93-3.84-1.83-6.38,3.14-7.34,1.75-.34,3.38-1.25,5.31-.94Z"/>
  <path class="cls-3" d="m288.73,73.97c1.35.12,3.77.29,6.18.56,2.11.24,3.36,1.47,3.66,3.58.46,3.17-1.63,4.7-3.73,6.61-4.7,4.27-10.61,6.36-16.14,8.73-4.9,2.1-6.72,6.3-10.06,9.38-1.2,1.11-3.87,4.16-6.01,2.3-2.79-2.42-4.56-6.03-2.3-9.88,2.86-4.9,7.18-8.47,11.56-11.99,1.97-1.58,3.47-3.73,5.24-5.56,2.88-2.97,6.6-3.62,11.61-3.74Z"/>
</svg>